# xmcd CD database file
#
# Track frame offsets:
#	150
#	15911
#	29422
#	47364
#	67166
#	81611
#	96132
#	111155
#	125669
#	140253
#	161914
#	177592
#	193945
#	208271
#	223517
#	240658
#	264827
#	280226
#
# Disc length: 3895 seconds
#
# Revision: 0
# Processed by: cddbd v1.5.1PL0 Copyright (c) Steve Scherf et al.
# Submitted via: CDex 1.51
#
DISCID=100f3512
DTITLE=Karen Hansen - Walk With You With Love
DYEAR=2005
DGENRE=Country
TTITLE0=Karen Hansen - Walk With You With Love
TTITLE1=Karen Hansen - Detour
TTITLE2=Karen Hansen - Saddle The Wind
TTITLE3=Karen Hansen - When It's Spingtime In The Rockies
TTITLE4=Karen Hansen - I'll Always Look Up To You
TTITLE5=Karen Hansen - Wings Of A Blackbirds
TTITLE6=Karen Hansen - Tell Me I Was Dreaming
TTITLE7=Karen Hansen - Can't Follow My Dreams
TTITLE8=Karen Hansen - Yodel And Smile
TTITLE9=Karen Hansen - Chain Of Love
TTITLE10=Karen Hansen - The Mighty Molyneaux
TTITLE11=Karen Hansen - Blue Smoke
TTITLE12=Karen Hansen - White Crosses
TTITLE13=Karen Hansen - Someday You'll Want Me To Want You
TTITLE14=Karen Hansen - Not All God's Angel
TTITLE15=Karen Hansen - The Gift
TTITLE16=Karen Hansen - 15-2-04
TTITLE17=Karen Hansen - Fading Memories
EXTD=YEAR: 2005
EXTT0=
EXTT1=
EXTT2=
EXTT3=
EXTT4=
EXTT5=
EXTT6=
EXTT7=
EXTT8=
EXTT9=
EXTT10=
EXTT11=
EXTT12=
EXTT13=
EXTT14=
EXTT15=
EXTT16=
EXTT17=
PLAYORDER=
